<svg width="24" height="24" viewBox="0 0 24 24" fill="none" xmlns="http://www.w3.org/2000/svg">
<path d="M21.4256 8.12439L4.92 3.06189C4.6966 2.99673 4.4611 2.98445 4.23213 3.026C4.00316 3.06756 3.787 3.16182 3.60075 3.30133C3.41449 3.44084 3.26325 3.62177 3.15899 3.82981C3.05472 4.03786 3.00029 4.26731 3 4.50002V18C3 18.3978 3.15804 18.7794 3.43934 19.0607C3.72064 19.342 4.10218 19.5 4.5 19.5C4.64344 19.5001 4.78614 19.4796 4.92375 19.4391L12.75 17.0372V18C12.75 18.3978 12.908 18.7794 13.1893 19.0607C13.4706 19.342 13.8522 19.5 14.25 19.5H17.25C17.6478 19.5 18.0294 19.342 18.3107 19.0607C18.592 18.7794 18.75 18.3978 18.75 18V15.1969L21.4256 14.3766C21.7353 14.2835 22.0069 14.0935 22.2003 13.8344C22.3937 13.5753 22.4988 13.2609 22.5 12.9375V9.56252C22.4986 9.23934 22.3934 8.92515 22.2 8.66624C22.0066 8.40733 21.7351 8.21739 21.4256 8.12439ZM17.25 18H14.25V16.5769L17.25 15.6563V18ZM21 12.9375H20.9897L14.25 15.0075V7.49158L20.9897 9.56252H21V12.9375Z" fill="#3FD449"/>
</svg>
