<svg width="46" height="46" viewBox="0 0 46 46" fill="none" xmlns="http://www.w3.org/2000/svg">
<g filter="url(#filter0_d_306_3175)">
<rect x="2" width="42" height="42" rx="21" fill="white"/>
<path d="M22.25 29.25C22.25 29.4489 22.171 29.6397 22.0303 29.7803C21.8897 29.921 21.6989 30 21.5 30H15.5C15.3011 30 15.1103 29.921 14.9697 29.7803C14.829 29.6397 14.75 29.4489 14.75 29.25V12.75C14.75 12.5511 14.829 12.3603 14.9697 12.2197C15.1103 12.079 15.3011 12 15.5 12H21.5C21.6989 12 21.8897 12.079 22.0303 12.2197C22.171 12.3603 22.25 12.5511 22.25 12.75C22.25 12.9489 22.171 13.1397 22.0303 13.2803C21.8897 13.421 21.6989 13.5 21.5 13.5H16.25V28.5H21.5C21.6989 28.5 21.8897 28.579 22.0303 28.7197C22.171 28.8603 22.25 29.0511 22.25 29.25ZM32.5306 20.4694L28.7806 16.7194C28.6757 16.6144 28.542 16.5428 28.3965 16.5139C28.2509 16.4849 28.1 16.4997 27.9629 16.5565C27.8258 16.6133 27.7086 16.7096 27.6262 16.833C27.5438 16.9565 27.4999 17.1016 27.5 17.25V20.25H21.5C21.3011 20.25 21.1103 20.329 20.9697 20.4697C20.829 20.6103 20.75 20.8011 20.75 21C20.75 21.1989 20.829 21.3897 20.9697 21.5303C21.1103 21.671 21.3011 21.75 21.5 21.75H27.5V24.75C27.4999 24.8984 27.5438 25.0435 27.6262 25.167C27.7086 25.2904 27.8258 25.3867 27.9629 25.4435C28.1 25.5003 28.2509 25.5151 28.3965 25.4861C28.542 25.4572 28.6757 25.3856 28.7806 25.2806L32.5306 21.5306C32.6004 21.461 32.6557 21.3783 32.6934 21.2872C32.7312 21.1962 32.7506 21.0986 32.7506 21C32.7506 20.9014 32.7312 20.8038 32.6934 20.7128C32.6557 20.6217 32.6004 20.539 32.5306 20.4694Z" fill="#003D28"/>
</g>
<defs>
<filter id="filter0_d_306_3175" x="0" y="0" width="46" height="46" filterUnits="userSpaceOnUse" color-interpolation-filters="sRGB">
<feFlood flood-opacity="0" result="BackgroundImageFix"/>
<feColorMatrix in="SourceAlpha" type="matrix" values="0 0 0 0 0 0 0 0 0 0 0 0 0 0 0 0 0 0 127 0" result="hardAlpha"/>
<feOffset dy="2"/>
<feGaussianBlur stdDeviation="1"/>
<feComposite in2="hardAlpha" operator="out"/>
<feColorMatrix type="matrix" values="0 0 0 0 0 0 0 0 0 0 0 0 0 0 0 0 0 0 0.2 0"/>
<feBlend mode="normal" in2="BackgroundImageFix" result="effect1_dropShadow_306_3175"/>
<feBlend mode="normal" in="SourceGraphic" in2="effect1_dropShadow_306_3175" result="shape"/>
</filter>
</defs>
</svg>
