<svg width="46" height="46" viewBox="0 0 46 46" fill="none" xmlns="http://www.w3.org/2000/svg">
<g filter="url(#filter0_d_427_2698)">
<rect x="2" width="42" height="42" rx="21" fill="white"/>
<path d="M32.75 27.75C32.75 27.9489 32.671 28.1397 32.5303 28.2803C32.3897 28.421 32.1989 28.5 32 28.5C31.8011 28.5 31.6103 28.421 31.4697 28.2803C31.329 28.1397 31.25 27.9489 31.25 27.75C31.2475 25.5627 30.3775 23.4657 28.8309 21.9191C27.2842 20.3725 25.1873 19.5025 23 19.5H19.25V23.25C19.2501 23.3984 19.2062 23.5435 19.1238 23.667C19.0414 23.7904 18.9242 23.8866 18.7871 23.9434C18.65 24.0003 18.4991 24.0151 18.3535 23.9861C18.208 23.9571 18.0743 23.8856 17.9694 23.7806L13.4694 19.2806C13.3996 19.211 13.3443 19.1282 13.3066 19.0372C13.2688 18.9461 13.2494 18.8485 13.2494 18.75C13.2494 18.6514 13.2688 18.5538 13.3066 18.4628C13.3443 18.3717 13.3996 18.289 13.4694 18.2194L17.9694 13.7194C18.0743 13.6143 18.208 13.5428 18.3535 13.5138C18.4991 13.4848 18.65 13.4997 18.7871 13.5565C18.9242 13.6133 19.0414 13.7095 19.1238 13.833C19.2062 13.9564 19.2501 14.1016 19.25 14.25V18H23C25.585 18.0027 28.0634 19.0308 29.8913 20.8587C31.7192 22.6866 32.7473 25.165 32.75 27.75Z" fill="#003D28"/>
</g>
<defs>
<filter id="filter0_d_427_2698" x="0" y="0" width="46" height="46" filterUnits="userSpaceOnUse" color-interpolation-filters="sRGB">
<feFlood flood-opacity="0" result="BackgroundImageFix"/>
<feColorMatrix in="SourceAlpha" type="matrix" values="0 0 0 0 0 0 0 0 0 0 0 0 0 0 0 0 0 0 127 0" result="hardAlpha"/>
<feOffset dy="2"/>
<feGaussianBlur stdDeviation="1"/>
<feComposite in2="hardAlpha" operator="out"/>
<feColorMatrix type="matrix" values="0 0 0 0 0 0 0 0 0 0 0 0 0 0 0 0 0 0 0.2 0"/>
<feBlend mode="normal" in2="BackgroundImageFix" result="effect1_dropShadow_427_2698"/>
<feBlend mode="normal" in="SourceGraphic" in2="effect1_dropShadow_427_2698" result="shape"/>
</filter>
</defs>
</svg>
