<svg width="10" height="7" viewBox="0 0 10 7" fill="none" xmlns="http://www.w3.org/2000/svg">
<path d="M9.68463 1.55953L5.30963 5.93453C5.269 5.97521 5.22075 6.00748 5.16764 6.0295C5.11453 6.05151 5.0576 6.06284 5.0001 6.06284C4.94261 6.06284 4.88568 6.05151 4.83256 6.0295C4.77945 6.00748 4.7312 5.97521 4.69057 5.93453L0.315569 1.55953C0.254314 1.49834 0.212591 1.42036 0.195681 1.33545C0.178772 1.25053 0.187436 1.16251 0.220578 1.08253C0.25372 1.00254 0.309848 0.934191 0.381858 0.886122C0.453868 0.838054 0.538521 0.812432 0.6251 0.8125H9.3751C9.46168 0.812432 9.54633 0.838054 9.61834 0.886122C9.69035 0.934191 9.74648 1.00254 9.77962 1.08253C9.81277 1.16251 9.82143 1.25053 9.80452 1.33545C9.78761 1.42036 9.74589 1.49834 9.68463 1.55953Z" fill="black"/>
</svg>
