<svg width="24" height="24" viewBox="0 0 24 24" fill="none" xmlns="http://www.w3.org/2000/svg">
<path d="M22.8103 12.75L13.5 3.43969C13.3612 3.2998 13.196 3.18889 13.014 3.11341C12.832 3.03792 12.6368 2.99938 12.4397 3.00001H3.75001C3.5511 3.00001 3.36033 3.07903 3.21968 3.21968C3.07903 3.36033 3.00001 3.5511 3.00001 3.75001V12.4397C2.99938 12.6368 3.03792 12.832 3.11341 13.014C3.18889 13.196 3.2998 13.3612 3.43969 13.5L12.75 22.8103C12.8893 22.9496 13.0547 23.0602 13.2367 23.1356C13.4187 23.211 13.6138 23.2498 13.8108 23.2498C14.0078 23.2498 14.2029 23.211 14.3849 23.1356C14.5669 23.0602 14.7323 22.9496 14.8716 22.8103L22.8103 14.8716C22.9496 14.7323 23.0602 14.5669 23.1356 14.3849C23.211 14.2029 23.2498 14.0078 23.2498 13.8108C23.2498 13.6138 23.211 13.4187 23.1356 13.2367C23.0602 13.0547 22.9496 12.8893 22.8103 12.75ZM5.87501 7.00001C5.6525 7.00001 5.435 6.93403 5.24999 6.81041C5.06499 6.68679 4.92079 6.51109 4.83564 6.30553C4.75049 6.09996 4.72822 5.87376 4.77162 5.65553C4.81503 5.4373 4.92218 5.23685 5.07951 5.07951C5.23685 4.92218 5.4373 4.81503 5.65553 4.77162C5.87376 4.72822 6.09996 4.75049 6.30553 4.83564C6.51109 4.92079 6.68679 5.06499 6.81041 5.24999C6.93403 5.435 7.00001 5.6525 7.00001 5.87501C7.00001 6.17338 6.88148 6.45952 6.6705 6.6705C6.45952 6.88148 6.17338 7.00001 5.87501 7.00001Z" fill="#3FD449"/>
<path d="M11.8421 8.58823C12.0604 8.80648 12.2269 9.02583 12.3372 9.24631C12.4434 9.45861 12.5257 9.67251 12.5851 9.88643C12.6032 9.94347 12.6068 10.002 12.5934 10.0604L12.5817 10.1122C12.565 10.1622 12.5352 10.2073 12.5002 10.2476L12.4995 10.2483C12.4344 10.322 12.3491 10.3628 12.2509 10.367C12.1455 10.3716 12.0535 10.3283 11.9796 10.2545C11.9393 10.2142 11.9078 10.1663 11.8898 10.1122L11.8891 10.1102C11.8369 9.94272 11.7716 9.78348 11.6923 9.63301C11.6165 9.48933 11.4983 9.33541 11.3353 9.17242C11.0951 8.9323 10.8504 8.7857 10.6019 8.72357C10.3499 8.66062 10.1049 8.67037 9.86445 8.75396L9.86306 8.75534C9.62277 8.83732 9.39851 8.98102 9.18979 9.18968C8.98122 9.39826 8.83557 9.62424 8.75061 9.86779L8.72299 9.95756C8.6678 10.1669 8.66771 10.3813 8.72299 10.6025C8.78511 10.851 8.9317 11.0957 9.17184 11.3359C9.33483 11.4989 9.48875 11.6171 9.63243 11.6929C9.78292 11.7722 9.94211 11.8375 10.1096 11.8897L10.1117 11.8904C10.1658 11.9084 10.2136 11.9399 10.2539 11.9801C10.3277 12.0541 10.371 12.1461 10.3665 12.2515C10.3621 12.3496 10.3215 12.435 10.2477 12.5001L10.1607 12.5609C10.13 12.5773 10.0976 12.5892 10.0633 12.5961C10.0036 12.6092 9.94401 12.6033 9.88654 12.585V12.5864C9.67251 12.5269 9.45883 12.4433 9.24642 12.3371C9.02587 12.2268 8.80665 12.0603 8.58834 11.842C8.29233 11.5459 8.08663 11.2114 7.97445 10.8387L7.97376 10.8366C7.8675 10.463 7.86603 10.0834 7.96893 9.70206C8.07571 9.31493 8.29745 8.95646 8.62701 8.6269C8.95915 8.29482 9.31738 8.07277 9.70217 7.96882C10.0835 7.86592 10.4616 7.86853 10.8326 7.9778C11.2086 8.08698 11.5456 8.29181 11.8421 8.58823ZM17.3643 14.1974C17.5877 14.4208 17.7516 14.6434 17.8484 14.8638C17.9489 15.0802 17.9975 15.2912 17.9879 15.4949C17.9843 15.6905 17.9422 15.8723 17.8594 16.0377L17.8588 16.037C17.7817 16.1998 17.6824 16.3445 17.5584 16.4686C17.4345 16.5925 17.2893 16.6919 17.1268 16.769L17.1275 16.7697C16.9616 16.8526 16.7779 16.8974 16.5792 16.9036C16.3792 16.9101 16.1685 16.8605 15.9501 16.7635L15.9494 16.7628C15.7319 16.6633 15.5105 16.4992 15.2865 16.2753L14.5912 15.5799L13.7591 16.412C13.6817 16.4893 13.5842 16.5274 13.4752 16.5245C13.3676 16.5245 13.2725 16.4846 13.1963 16.4085C13.1201 16.3323 13.079 16.2372 13.0789 16.1295C13.0789 16.0218 13.1207 15.9262 13.197 15.8499L15.8238 13.2231C15.899 13.1479 15.9926 13.1067 16.0986 13.1057H16.1027C16.2116 13.1028 16.3086 13.1417 16.3858 13.2189L17.3643 14.1974ZM13.8053 10.5942C13.8837 10.6726 13.9227 10.7721 13.9186 10.8829L13.9165 10.8822C13.9184 10.9895 13.8816 11.0855 13.8053 11.1618L11.4617 13.5055L12.7799 14.8237C12.8558 14.8999 12.8927 14.9953 12.8911 15.102H12.8924C12.8965 15.2127 12.8573 15.311 12.7792 15.3893C12.7019 15.4666 12.605 15.5054 12.4961 15.5025L12.4954 15.5032C12.4941 15.5032 12.4925 15.5032 12.4912 15.5032L12.4919 15.5025C12.3861 15.5015 12.2923 15.4615 12.2171 15.3865L10.6924 13.8618C10.6081 13.7774 10.5589 13.6745 10.5453 13.5587L10.5412 13.5021C10.545 13.3657 10.5961 13.2456 10.6924 13.1492L13.2425 10.5991C13.3177 10.5239 13.4115 10.4828 13.5174 10.4817C13.628 10.4776 13.727 10.5161 13.8053 10.5942ZM8.86455 11.9304C8.89811 11.9591 8.93126 11.9867 8.96468 12.0126C8.93124 11.9867 8.89814 11.9591 8.86455 11.9304ZM9.00128 12.0409C9.04969 12.077 9.09746 12.1108 9.1456 12.141C9.09746 12.1108 9.04973 12.077 9.00128 12.0409ZM12.4084 15.3651C12.4136 15.3669 12.4189 15.3685 12.4243 15.37C12.4189 15.3685 12.4136 15.367 12.4084 15.3651ZM10.671 13.4358C10.6666 13.4584 10.6634 13.482 10.6627 13.5062C10.6634 13.482 10.6666 13.4583 10.671 13.4358ZM9.60964 12.3661L9.61033 12.3668L9.60964 12.3661ZM12.5693 15.3727C12.5739 15.3717 12.5786 15.3713 12.5831 15.37C12.5786 15.3713 12.5739 15.3716 12.5693 15.3727ZM10.6896 13.3716C10.6842 13.3857 10.6803 13.4002 10.6765 13.4151C10.6803 13.4002 10.6842 13.3857 10.6896 13.3716ZM12.6929 15.3044H12.6943H12.6929ZM10.7014 13.3419C10.7 13.3447 10.6992 13.3479 10.6979 13.3508C10.7069 13.3312 10.7173 13.3123 10.7297 13.2942L10.7014 13.3419ZM12.7384 15.2436C12.7408 15.2393 12.7426 15.2349 12.7447 15.2305C12.7426 15.2348 12.7408 15.2393 12.7384 15.2436ZM10.1234 12.0292C10.1076 12.0191 10.0909 12.0114 10.0737 12.0057C9.89914 11.9513 9.73317 11.8822 9.5758 11.7992C9.4578 11.737 9.33644 11.6506 9.21189 11.5403L9.08552 11.4222C9.25429 11.5909 9.41778 11.7169 9.57511 11.7999C9.73252 11.8829 9.8991 11.9513 10.0737 12.0057C10.108 12.0171 10.139 12.0379 10.1676 12.0664L10.1683 12.0658C10.154 12.0515 10.139 12.0391 10.1234 12.0292ZM12.7619 15.0323C12.7606 15.0267 12.7595 15.0212 12.7578 15.0157C12.7595 15.0212 12.7606 15.0267 12.7619 15.0323ZM11.2897 13.5062L12.6929 14.9094H12.6943L11.2904 13.5055L11.2897 13.5062ZM8.67396 10.8366C8.68015 10.8511 8.68797 10.865 8.69468 10.8794C8.67236 10.8313 8.65174 10.7832 8.63529 10.7344L8.67396 10.8366ZM10.2097 12.3599C10.2125 12.3556 10.2149 12.3512 10.2173 12.3468C10.2149 12.3513 10.2125 12.3556 10.2097 12.3599ZM8.56831 10.4271C8.57564 10.495 8.58772 10.5634 8.60491 10.6322C8.5706 10.4949 8.55647 10.3592 8.56141 10.2255L8.56831 10.4271ZM10.2449 12.246C10.2446 12.2539 10.2432 12.2619 10.2422 12.2695L10.2456 12.2467C10.2463 12.2301 10.2451 12.2135 10.2422 12.1976C10.2451 12.2134 10.2456 12.2295 10.2449 12.246ZM8.12499 9.61091C8.11556 9.63793 8.10694 9.66512 8.09875 9.69239C8.10695 9.66512 8.11555 9.63792 8.12499 9.61091ZM8.17195 9.48799C8.16388 9.50697 8.15659 9.5262 8.14916 9.54531C8.1566 9.5262 8.16387 9.50697 8.17195 9.48799ZM8.29348 9.24907C8.2834 9.26634 8.27331 9.28347 8.26379 9.30086C8.27332 9.28348 8.28339 9.26633 8.29348 9.24907ZM8.44195 9.02465C8.43204 9.03792 8.4225 9.05135 8.41294 9.0647C8.42251 9.05136 8.43203 9.03791 8.44195 9.02465ZM8.71263 8.71252V8.71391V8.71252ZM15.7036 15.7808L15.7029 15.7815L15.7036 15.7808ZM15.1318 15.0392L15.7885 15.6959C15.997 15.9043 16.1749 16.024 16.3202 16.0729C16.4772 16.1216 16.6019 16.1222 16.7021 16.0874C16.821 16.0442 16.9182 15.9832 16.9956 15.9058C17.0763 15.825 17.1365 15.7279 17.1765 15.613C17.2112 15.5134 17.2112 15.3899 17.1599 15.236L17.1579 15.2339L17.1586 15.2332C17.1126 15.0861 16.9935 14.908 16.785 14.6995L16.1283 14.0428L15.1318 15.0392ZM16.5288 16.2331L16.5281 16.2338L16.5288 16.2331ZM16.7422 16.2021L16.8388 16.162C16.8492 16.157 16.8585 16.15 16.8685 16.1447C16.8285 16.1657 16.7869 16.1859 16.7422 16.2021ZM17.2207 16.5798C17.2292 16.5745 17.2379 16.5694 17.2463 16.5639C17.2378 16.5694 17.2292 16.5745 17.2207 16.5798ZM17.0812 15.9914L17.0819 15.9921L17.0812 15.9914ZM17.751 15.9832C17.7686 15.948 17.7837 15.9117 17.7973 15.8747C17.7837 15.9117 17.7686 15.948 17.751 15.9832ZM12.1239 10.2124C12.1274 10.2145 12.1307 10.2167 12.1342 10.2186C12.1307 10.2167 12.1274 10.2145 12.1239 10.2124ZM9.98736 8.03442C9.97558 8.03607 9.96394 8.03876 9.95214 8.04063C9.96394 8.03876 9.97558 8.03607 9.98736 8.03442ZM17.8056 15.8513C17.8168 15.8183 17.8265 15.7848 17.8346 15.7504C17.8265 15.7848 17.8168 15.8183 17.8056 15.8513ZM12.2454 10.2455C12.2379 10.2458 12.2306 10.2445 12.2233 10.2441L12.2461 10.2462C12.2499 10.246 12.2535 10.2438 12.2571 10.2434C12.2533 10.2438 12.2493 10.2453 12.2454 10.2455ZM12.3103 10.2331C12.3137 10.232 12.3167 10.2302 12.32 10.2289C12.3167 10.2302 12.3137 10.232 12.3103 10.2331ZM10.2311 8.01716C10.218 8.01732 10.2049 8.01741 10.1918 8.01785C10.2049 8.0174 10.218 8.01733 10.2311 8.01716ZM10.9576 8.73393C10.9415 8.72531 10.9254 8.71702 10.9092 8.70907C10.9254 8.71702 10.9415 8.72531 10.9576 8.73393ZM10.459 8.02682C10.4475 8.02557 10.436 8.02372 10.4245 8.02268C10.436 8.02372 10.4475 8.02557 10.459 8.02682ZM12.4733 10.0439C12.4788 10.0245 12.4806 10.0045 12.4802 9.98449C12.4807 10.0046 12.4788 10.0244 12.4733 10.0439ZM12.4795 9.97827C12.479 9.96939 12.4791 9.96035 12.4774 9.95134L12.4691 9.91958L12.4795 9.97827ZM17.7379 14.9149C17.8087 15.0673 17.8507 15.2132 17.8636 15.3527C17.8508 15.213 17.8094 15.0667 17.7386 14.9142L17.7379 14.9149ZM12.4042 9.71656C12.3976 9.69766 12.3905 9.67884 12.3835 9.65994C12.3905 9.67885 12.3976 9.69765 12.4042 9.71656ZM11.7565 8.67385L11.7558 8.67454C11.9676 8.88632 12.1251 9.09549 12.2281 9.30155L12.2288 9.30086C12.1258 9.09489 11.9682 8.88554 11.7565 8.67385ZM13.5215 10.6032L13.5222 10.6039L13.5215 10.6032ZM11.1834 8.24849L11.1827 8.24918L11.1834 8.24849ZM16.2574 13.2687L16.2567 13.2694L16.2574 13.2687Z" fill="white"/>
</svg>
