<svg width="24" height="24" viewBox="0 0 24 24" fill="none" xmlns="http://www.w3.org/2000/svg">
<path d="M21.75 12.0001V17.2501C21.75 17.8468 21.5129 18.4191 21.091 18.841C20.669 19.263 20.0967 19.5001 19.5 19.5001H18C17.4033 19.5001 16.831 19.263 16.409 18.841C15.9871 18.4191 15.75 17.8468 15.75 17.2501V13.5001C15.75 12.9033 15.9871 12.331 16.409 11.9091C16.831 11.4871 17.4033 11.2501 18 11.2501H20.2172C20.037 9.20827 19.1008 7.30738 17.592 5.91999C16.0832 4.53259 14.1106 3.75872 12.0609 3.75006H12C9.94173 3.74995 7.95776 4.51924 6.43759 5.90689C4.91742 7.29454 3.97087 9.20031 3.78375 11.2501H6C6.59674 11.2501 7.16903 11.4871 7.59099 11.9091C8.01295 12.331 8.25 12.9033 8.25 13.5001V17.2501C8.25 17.8468 8.01295 18.4191 7.59099 18.841C7.16903 19.263 6.59674 19.5001 6 19.5001H4.5C3.90326 19.5001 3.33097 19.263 2.90901 18.841C2.48705 18.4191 2.25 17.8468 2.25 17.2501V12.0001C2.2521 10.0687 2.82715 8.1814 3.90235 6.57702C4.97755 4.97264 6.50456 3.72331 8.29012 2.98717C10.0757 2.25102 12.0395 2.06116 13.933 2.44162C15.8265 2.82207 17.5646 3.75574 18.9272 5.12443C19.8268 6.02847 20.5393 7.10114 21.0237 8.28098C21.5081 9.46083 21.7549 10.7247 21.75 12.0001Z" fill="#3FD449"/>
</svg>
