<svg width="18" height="20" viewBox="0 0 18 20" fill="none" xmlns="http://www.w3.org/2000/svg">
<path d="M17.7957 14.245C17.2753 13.3487 16.5018 10.8127 16.5018 7.50032C16.5018 5.51111 15.7115 3.60338 14.3047 2.19679C12.8979 0.79021 10.9899 0 9.00047 0C7.011 0 5.10302 0.79021 3.69625 2.19679C2.28949 3.60338 1.49917 5.51111 1.49917 7.50032C1.49917 10.8136 0.724663 13.3487 0.204261 14.245C0.0713668 14.4729 0.000914497 14.7317 8.84306e-06 14.9955C-0.000896811 15.2593 0.0677764 15.5186 0.199103 15.7474C0.330429 15.9762 0.519765 16.1663 0.748016 16.2985C0.976267 16.4308 1.23536 16.5005 1.49917 16.5007H5.32577C5.49884 17.3475 5.95909 18.1085 6.62868 18.655C7.29828 19.2015 8.13611 19.5 9.00047 19.5C9.86483 19.5 10.7027 19.2015 11.3723 18.655C12.0418 18.1085 12.5021 17.3475 12.6752 16.5007H16.5018C16.7655 16.5004 17.0245 16.4305 17.2526 16.2982C17.4807 16.1658 17.6699 15.9757 17.8011 15.747C17.9323 15.5182 18.0009 15.259 18 14.9953C17.999 14.7316 17.9286 14.4728 17.7957 14.245ZM9.00047 18.0008C8.53522 18.0006 8.08145 17.8563 7.70162 17.5877C7.32178 17.319 7.03456 16.9393 6.87948 16.5007H11.1215C10.9664 16.9393 10.6792 17.319 10.2993 17.5877C9.91949 17.8563 9.46572 18.0006 9.00047 18.0008Z" fill="#003D28"/>
</svg>
