<svg width="34" height="34" viewBox="0 0 34 34" fill="none" xmlns="http://www.w3.org/2000/svg">
<path d="M30.1537 29.1197C30.0627 29.2774 29.9317 29.4084 29.774 29.4994C29.6163 29.5904 29.4373 29.6383 29.2552 29.6383H4.36161C4.17963 29.6381 4.0009 29.59 3.84337 29.4989C3.68583 29.4078 3.55505 29.2769 3.46414 29.1192C3.37323 28.9616 3.32539 28.7828 3.32544 28.6008C3.32549 28.4188 3.37341 28.24 3.4644 28.0824C5.43904 24.6686 8.48202 22.2208 12.0333 21.0604C10.2767 20.0147 8.91189 18.4212 8.14854 16.5248C7.38518 14.6284 7.26546 12.5338 7.80774 10.5627C8.35003 8.59167 9.52434 6.85311 11.1503 5.61404C12.7763 4.37498 14.7641 3.70392 16.8084 3.70392C18.8527 3.70392 20.8405 4.37498 22.4665 5.61404C24.0925 6.85311 25.2668 8.59167 25.8091 10.5627C26.3514 12.5338 26.2317 14.6284 25.4683 16.5248C24.705 18.4212 23.3402 20.0147 21.5836 21.0604C25.1348 22.2208 28.1778 24.6686 30.1524 28.0824C30.2437 28.24 30.2918 28.4188 30.2921 28.6009C30.2923 28.783 30.2446 28.9619 30.1537 29.1197Z" fill="#3FD449"/>
</svg>
