<svg width="9" height="17" viewBox="0 0 9 17" fill="none" xmlns="http://www.w3.org/2000/svg">
<path d="M0.219761 1.28118C0.150078 1.2115 0.0948037 1.12878 0.0570917 1.03773C0.0193797 0.946686 -3.14713e-05 0.849105 -3.14713e-05 0.750559C-3.14713e-05 0.652013 0.0193797 0.554431 0.0570917 0.463387C0.0948037 0.372342 0.150078 0.289615 0.219761 0.219933C0.289444 0.15025 0.372169 0.0949763 0.463214 0.0572643C0.554259 0.0195523 0.65184 0.000141144 0.750386 0.000141144C0.848932 0.000141144 0.946514 0.0195523 1.03756 0.0572643C1.1286 0.0949763 1.21133 0.15025 1.28101 0.219933L8.78101 7.71993C8.85074 7.78959 8.90606 7.87231 8.94381 7.96335C8.98155 8.0544 9.00098 8.152 9.00098 8.25056C9.00098 8.34912 8.98155 8.44672 8.94381 8.53776C8.90606 8.62881 8.85074 8.71153 8.78101 8.78119L1.28101 16.2812C1.14028 16.4219 0.949409 16.501 0.750386 16.501C0.551363 16.501 0.360491 16.4219 0.219761 16.2812C0.0790304 16.1405 -3.14673e-05 15.9496 -3.14713e-05 15.7506C-3.14752e-05 15.5515 0.0790304 15.3607 0.219761 15.2199L7.19007 8.25056L0.219761 1.28118Z" fill="black"/>
</svg>
