<svg width="24" height="24" viewBox="0 0 24 24" fill="none" xmlns="http://www.w3.org/2000/svg">
<path d="M20.0306 14.4694L12.5306 6.96945C12.4609 6.89971 12.3782 6.84439 12.2871 6.80665C12.1961 6.76891 12.0985 6.74948 11.9999 6.74948C11.9014 6.74948 11.8038 6.76891 11.7127 6.80665C11.6217 6.84439 11.539 6.89971 11.4693 6.96945L3.9693 14.4694C3.82857 14.6102 3.74951 14.801 3.74951 15.0001C3.74951 15.1991 3.82857 15.39 3.9693 15.5307C4.11003 15.6714 4.30091 15.7505 4.49993 15.7505C4.69895 15.7505 4.88982 15.6714 5.03055 15.5307L11.9999 8.56038L18.9693 15.5307C19.039 15.6004 19.1217 15.6557 19.2128 15.6934C19.3038 15.7311 19.4014 15.7505 19.4999 15.7505C19.5985 15.7505 19.6961 15.7311 19.7871 15.6934C19.8781 15.6557 19.9609 15.6004 20.0306 15.5307C20.1002 15.461 20.1555 15.3783 20.1932 15.2872C20.2309 15.1962 20.2503 15.0986 20.2503 15.0001C20.2503 14.9015 20.2309 14.8039 20.1932 14.7129C20.1555 14.6219 20.1002 14.5391 20.0306 14.4694Z" fill="black"/>
</svg>
