<svg width="355" height="355" viewBox="0 0 355 355" fill="none" xmlns="http://www.w3.org/2000/svg">
<rect x="1" y="1" width="353" height="353" rx="8" fill="#EDEDED" stroke="black" stroke-width="2" stroke-linecap="round" stroke-dasharray="2 6"/>
<path d="M209.792 147.521L188.354 126.083C188.07 125.799 187.732 125.574 187.36 125.42C186.988 125.266 186.59 125.187 186.188 125.188H149.438C147.813 125.188 146.255 125.833 145.106 126.981C143.958 128.13 143.312 129.688 143.312 131.313V198.688C143.312 200.312 143.958 201.87 145.106 203.019C146.255 204.167 147.813 204.812 149.438 204.812H204.562C206.187 204.812 207.745 204.167 208.894 203.019C210.042 201.87 210.688 200.312 210.688 198.688V149.688C210.688 149.285 210.609 148.887 210.455 148.515C210.301 148.143 210.076 147.805 209.792 147.521ZM188.354 173.292C188.07 173.576 187.732 173.802 187.36 173.956C186.988 174.111 186.59 174.19 186.188 174.19C185.785 174.19 185.387 174.111 185.015 173.956C184.643 173.802 184.305 173.576 184.021 173.292L180.062 169.33V186.438C180.062 187.25 179.74 188.029 179.166 188.603C178.591 189.177 177.812 189.5 177 189.5C176.188 189.5 175.409 189.177 174.834 188.603C174.26 188.029 173.938 187.25 173.938 186.438V169.33L169.979 173.292C169.695 173.576 169.357 173.802 168.985 173.956C168.613 174.11 168.215 174.189 167.812 174.189C167.41 174.189 167.012 174.11 166.64 173.956C166.268 173.802 165.93 173.576 165.646 173.292C165.361 173.007 165.136 172.669 164.982 172.298C164.828 171.926 164.748 171.527 164.748 171.125C164.748 170.723 164.828 170.324 164.982 169.952C165.136 169.581 165.361 169.243 165.646 168.958L174.833 159.771C175.118 159.486 175.455 159.26 175.827 159.106C176.199 158.952 176.598 158.873 177 158.873C177.402 158.873 177.801 158.952 178.173 159.106C178.545 159.26 178.882 159.486 179.167 159.771L188.354 168.958C188.639 169.243 188.865 169.58 189.019 169.952C189.173 170.324 189.252 170.723 189.252 171.125C189.252 171.527 189.173 171.926 189.019 172.298C188.865 172.67 188.639 173.007 188.354 173.292ZM186.188 149.688V132.844L203.031 149.688H186.188Z" fill="#CCCCCC"/>
<rect x="157.5" y="224" width="39" height="16" rx="8" fill="#CCCCCC"/>
<path d="M166.28 228.32C167.44 228.32 168.33 228.99 168.53 229.98H170.2V227.93H171.18V232.68H170.2V230.78H168.54C168.36 231.79 167.46 232.47 166.28 232.47C164.95 232.47 163.98 231.61 163.98 230.4C163.98 229.18 164.95 228.32 166.28 228.32ZM164.92 230.4C164.92 231.15 165.48 231.64 166.28 231.64C167.07 231.64 167.63 231.15 167.63 230.4C167.63 229.64 167.07 229.14 166.28 229.14C165.48 229.14 164.92 229.64 164.92 230.4ZM165.43 236.67V233.11H166.42V234.11H170.2V233.11H171.18V236.67H165.43ZM166.42 235.88H170.2V234.87H166.42V235.88ZM172.57 234.92H176.08V233.39H173.54V230.55H178.66V229.33H173.52V228.55H179.63V231.33H174.51V232.6H179.83V233.39H177.05V234.92H180.59V235.72H172.57V234.92ZM182.27 228.7H188.31V229.51H183.24V232.11H188.4V232.9H182.27V228.7ZM181.28 235.63V234.82H189.3V235.63H181.28Z" fill="white"/>
</svg>
