<svg width="40" height="48" viewBox="0 0 40 48" fill="none" xmlns="http://www.w3.org/2000/svg">
<path d="M36.3125 0.4375H3.6875C2.72609 0.4375 1.80406 0.819418 1.12424 1.49924C0.444418 2.17906 0.0625 3.10109 0.0625 4.0625V43.9375C0.0625 44.8989 0.444418 45.8209 1.12424 46.5008C1.80406 47.1806 2.72609 47.5625 3.6875 47.5625H36.3125C37.2739 47.5625 38.1959 47.1806 38.8758 46.5008C39.5556 45.8209 39.9375 44.8989 39.9375 43.9375V4.0625C39.9375 3.10109 39.5556 2.17906 38.8758 1.49924C38.1959 0.819418 37.2739 0.4375 36.3125 0.4375ZM20 31.25C20.5377 31.25 21.0634 31.4095 21.5105 31.7082C21.9576 32.0069 22.306 32.4315 22.5118 32.9283C22.7176 33.4251 22.7714 33.9718 22.6665 34.4991C22.5616 35.0265 22.3027 35.511 21.9224 35.8912C21.5422 36.2714 21.0578 36.5304 20.5304 36.6353C20.003 36.7402 19.4564 36.6863 18.9596 36.4805C18.4628 36.2748 18.0382 35.9263 17.7394 35.4792C17.4407 35.0321 17.2812 34.5065 17.2812 33.9688C17.2812 33.2477 17.5677 32.5562 18.0776 32.0463C18.5874 31.5364 19.2789 31.25 20 31.25ZM18.1875 25.8125V13.125C18.1875 12.6443 18.3785 12.1833 18.7184 11.8434C19.0583 11.5035 19.5193 11.3125 20 11.3125C20.4807 11.3125 20.9417 11.5035 21.2816 11.8434C21.6215 12.1833 21.8125 12.6443 21.8125 13.125V25.8125C21.8125 26.2932 21.6215 26.7542 21.2816 27.0941C20.9417 27.434 20.4807 27.625 20 27.625C19.5193 27.625 19.0583 27.434 18.7184 27.0941C18.3785 26.7542 18.1875 26.2932 18.1875 25.8125Z" fill="#CCCCCC"/>
</svg>
