<svg width="46" height="46" viewBox="0 0 46 46" fill="none" xmlns="http://www.w3.org/2000/svg">
<g filter="url(#filter0_d_522_1090)">
<rect x="2" width="42" height="42" rx="21" fill="white"/>
<path d="M30.2806 27.2193C30.3502 27.289 30.4055 27.3717 30.4432 27.4628C30.4809 27.5538 30.5003 27.6514 30.5003 27.7499C30.5003 27.8485 30.4809 27.9461 30.4432 28.0371C30.4055 28.1281 30.3502 28.2109 30.2806 28.2806C30.2109 28.3502 30.1281 28.4055 30.0371 28.4432C29.9461 28.4809 29.8485 28.5003 29.7499 28.5003C29.6514 28.5003 29.5538 28.4809 29.4628 28.4432C29.3717 28.4055 29.289 28.3502 29.2193 28.2806L22.9999 22.0602L16.7806 28.2806C16.6398 28.4213 16.449 28.5003 16.2499 28.5003C16.0509 28.5003 15.86 28.4213 15.7193 28.2806C15.5786 28.1398 15.4995 27.949 15.4995 27.7499C15.4995 27.5509 15.5786 27.36 15.7193 27.2193L21.9396 20.9999L15.7193 14.7806C15.5786 14.6398 15.4995 14.449 15.4995 14.2499C15.4995 14.0509 15.5786 13.86 15.7193 13.7193C15.86 13.5786 16.0509 13.4995 16.2499 13.4995C16.449 13.4995 16.6398 13.5786 16.7806 13.7193L22.9999 19.9396L29.2193 13.7193C29.36 13.5786 29.5509 13.4995 29.7499 13.4995C29.949 13.4995 30.1398 13.5786 30.2806 13.7193C30.4213 13.86 30.5003 14.0509 30.5003 14.2499C30.5003 14.449 30.4213 14.6398 30.2806 14.7806L24.0602 20.9999L30.2806 27.2193Z" fill="black"/>
</g>
<defs>
<filter id="filter0_d_522_1090" x="0" y="0" width="46" height="46" filterUnits="userSpaceOnUse" color-interpolation-filters="sRGB">
<feFlood flood-opacity="0" result="BackgroundImageFix"/>
<feColorMatrix in="SourceAlpha" type="matrix" values="0 0 0 0 0 0 0 0 0 0 0 0 0 0 0 0 0 0 127 0" result="hardAlpha"/>
<feOffset dy="2"/>
<feGaussianBlur stdDeviation="1"/>
<feComposite in2="hardAlpha" operator="out"/>
<feColorMatrix type="matrix" values="0 0 0 0 0 0 0 0 0 0 0 0 0 0 0 0 0 0 0.2 0"/>
<feBlend mode="normal" in2="BackgroundImageFix" result="effect1_dropShadow_522_1090"/>
<feBlend mode="normal" in="SourceGraphic" in2="effect1_dropShadow_522_1090" result="shape"/>
</filter>
</defs>
</svg>
