<svg width="24" height="24" viewBox="0 0 24 24" fill="none" xmlns="http://www.w3.org/2000/svg">
<path d="M19.5 3H17.25V2.25C17.25 2.05109 17.171 1.86032 17.0303 1.71967C16.8897 1.57902 16.6989 1.5 16.5 1.5C16.3011 1.5 16.1103 1.57902 15.9697 1.71967C15.829 1.86032 15.75 2.05109 15.75 2.25V3H12.75V2.25C12.75 2.05109 12.671 1.86032 12.5303 1.71967C12.3897 1.57902 12.1989 1.5 12 1.5C11.8011 1.5 11.6103 1.57902 11.4697 1.71967C11.329 1.86032 11.25 2.05109 11.25 2.25V3H8.25V2.25C8.25 2.05109 8.17098 1.86032 8.03033 1.71967C7.88968 1.57902 7.69891 1.5 7.5 1.5C7.30109 1.5 7.11032 1.57902 6.96967 1.71967C6.82902 1.86032 6.75 2.05109 6.75 2.25V3H4.5C4.30109 3 4.11032 3.07902 3.96967 3.21967C3.82902 3.36032 3.75 3.55109 3.75 3.75V18.75C3.75 19.5456 4.06607 20.3087 4.62868 20.8713C5.19129 21.4339 5.95435 21.75 6.75 21.75H17.25C18.0456 21.75 18.8087 21.4339 19.3713 20.8713C19.9339 20.3087 20.25 19.5456 20.25 18.75V3.75C20.25 3.55109 20.171 3.36032 20.0303 3.21967C19.8897 3.07902 19.6989 3 19.5 3ZM11.25 5.25C11.25 5.05109 11.329 4.86032 11.4697 4.71967C11.6103 4.57902 11.8011 4.5 12 4.5C12.1989 4.5 12.3897 4.57902 12.5303 4.71967C12.671 4.86032 12.75 5.05109 12.75 5.25V6C12.75 6.19891 12.671 6.38968 12.5303 6.53033C12.3897 6.67098 12.1989 6.75 12 6.75C11.8011 6.75 11.6103 6.67098 11.4697 6.53033C11.329 6.38968 11.25 6.19891 11.25 6V5.25ZM7.5 6.75C7.30109 6.75 7.11032 6.67098 6.96967 6.53033C6.82902 6.38968 6.75 6.19891 6.75 6V5.25C6.75 5.05109 6.82902 4.86032 6.96967 4.71967C7.11032 4.57902 7.30109 4.5 7.5 4.5C7.69891 4.5 7.88968 4.57902 8.03033 4.71967C8.17098 4.86032 8.25 5.05109 8.25 5.25V6C8.25 6.19891 8.17098 6.38968 8.03033 6.53033C7.88968 6.67098 7.69891 6.75 7.5 6.75ZM15 15.75H9C8.80109 15.75 8.61032 15.671 8.46967 15.5303C8.32902 15.3897 8.25 15.1989 8.25 15C8.25 14.8011 8.32902 14.6103 8.46967 14.4697C8.61032 14.329 8.80109 14.25 9 14.25H15C15.1989 14.25 15.3897 14.329 15.5303 14.4697C15.671 14.6103 15.75 14.8011 15.75 15C15.75 15.1989 15.671 15.3897 15.5303 15.5303C15.3897 15.671 15.1989 15.75 15 15.75ZM15 12.75H9C8.80109 12.75 8.61032 12.671 8.46967 12.5303C8.32902 12.3897 8.25 12.1989 8.25 12C8.25 11.8011 8.32902 11.6103 8.46967 11.4697C8.61032 11.329 8.80109 11.25 9 11.25H15C15.1989 11.25 15.3897 11.329 15.5303 11.4697C15.671 11.6103 15.75 11.8011 15.75 12C15.75 12.1989 15.671 12.3897 15.5303 12.5303C15.3897 12.671 15.1989 12.75 15 12.75ZM17.25 6C17.25 6.19891 17.171 6.38968 17.0303 6.53033C16.8897 6.67098 16.6989 6.75 16.5 6.75C16.3011 6.75 16.1103 6.67098 15.9697 6.53033C15.829 6.38968 15.75 6.19891 15.75 6V5.25C15.75 5.05109 15.829 4.86032 15.9697 4.71967C16.1103 4.57902 16.3011 4.5 16.5 4.5C16.6989 4.5 16.8897 4.57902 17.0303 4.71967C17.171 4.86032 17.25 5.05109 17.25 5.25V6Z" fill="#003D28"/>
</svg>
