<svg width="24" height="24" viewBox="0 0 24 24" fill="none" xmlns="http://www.w3.org/2000/svg">
<circle cx="12" cy="12" r="11" fill="#003D28"/>
<path d="M9 15.1275V8.87252C9 8.38527 9.36823 8 9.83394 8H12.0975C13.9061 8 15 9.11048 15 10.7422V10.7649C15 12.6119 13.6354 13.5524 11.935 13.5524H10.6679V15.1275C10.6679 15.6147 10.2996 16 9.83394 16C9.36823 16 9 15.6147 9 15.1275ZM10.6679 12H11.9892C12.8231 12 13.3105 11.4788 13.3105 10.7989V10.7762C13.3105 9.99433 12.7906 9.57507 11.9567 9.57507H10.6679V12Z" fill="white"/>
</svg>
