<svg width="24" height="24" viewBox="0 0 24 24" fill="none" xmlns="http://www.w3.org/2000/svg">
<path d="M21.625 12C21.625 6.93739 17.0626 2.375 12 2.375C6.93739 2.375 2.375 6.81458 2.375 11.8772C2.375 16.9398 6.93739 21.625 12 21.625C17.0626 21.625 21.625 17.0626 21.625 12ZM12.1602 8.42554C13.9969 8.42569 15.108 9.50312 15.1081 11.0869V11.1093C15.108 12.9022 13.7216 13.8154 11.9946 13.8154H10.7083V15.3444C10.7081 15.8173 10.3334 16.1912 9.86051 16.1912C9.38777 16.1911 9.01384 15.8171 9.01367 15.3444V9.27238C9.01367 8.79949 9.38767 8.42571 9.86051 8.42554H12.1602ZM10.7083 9.95451V12.3079H12.0501C12.8968 12.3078 13.3918 11.8022 13.392 11.1424V11.12C13.392 10.3611 12.8639 9.95456 12.017 9.95451H10.7083ZM23 12C23 18.0751 18.0751 23 12 23C5.92487 23 1 18.0751 1 12C1 5.92487 5.92487 1 12 1C18.0751 1 23 5.92487 23 12Z" fill="#9A9A9A"/>
</svg>
