<svg width="24" height="24" viewBox="0 0 24 24" fill="none" xmlns="http://www.w3.org/2000/svg">
<path d="M3.24971 7.85946H7.85946V3.24971H3.24971V7.85946ZM9.10918 8.32792C9.10918 8.7594 8.75939 9.10918 8.32792 9.10918H2.78126C2.34978 9.10918 2 8.75939 2 8.32792V2.78126C2 2.34978 2.34978 2 2.78126 2H8.32792C8.7594 2 9.10918 2.34978 9.10918 2.78126V8.32792Z" fill="white"/>
<path d="M3.24971 20.7503H7.85946V16.1406H3.24971V20.7503ZM9.10918 21.2188C9.10918 21.6503 8.75939 22 8.32792 22H2.78126C2.34978 22 2 21.6503 2 21.2188V15.6721C2 15.2407 2.34978 14.8909 2.78126 14.8909H8.32792C8.7594 14.8909 9.10918 15.2407 9.10918 15.6721V21.2188Z" fill="white"/>
<path d="M4.96864 11.375C5.31383 11.375 5.5935 11.6547 5.5935 11.9999C5.5935 12.345 5.31383 12.6247 4.96864 12.6247H2.62486C2.27967 12.6247 2 12.345 2 11.9999C2 11.6547 2.27967 11.375 2.62486 11.375H4.96864Z" fill="white"/>
<path d="M9.65613 11.375L9.72022 11.3781C10.0353 11.4101 10.281 11.6763 10.281 11.9999C10.281 12.345 10.0013 12.6247 9.65613 12.6247L7.89829 12.6247C7.55311 12.6247 7.27344 12.345 7.27344 11.9999C7.27344 11.6547 7.55311 11.375 7.89829 11.375L9.65613 11.375Z" fill="white"/>
<path d="M12.6248 9.65614C12.6248 10.0013 12.3451 10.281 11.9999 10.281C11.6764 10.281 11.4102 10.0353 11.3781 9.72023L11.375 9.65614L11.375 7.31236C11.375 6.96717 11.6547 6.6875 11.9999 6.6875C12.3451 6.6875 12.6248 6.96717 12.6248 7.31236L12.6248 9.65614Z" fill="white"/>
<path d="M12.6248 21.3752L12.6217 21.4393C12.5896 21.7544 12.3234 22.0001 11.9999 22.0001C11.6547 22.0001 11.375 21.7204 11.375 21.3752L11.375 14.3439C11.375 13.9987 11.6547 13.719 11.9999 13.719C12.3451 13.719 12.6248 13.9987 12.6248 14.3439L12.6248 21.3752Z" fill="white"/>
<path d="M12.6248 3.79675C12.6248 4.14193 12.3451 4.42161 11.9999 4.42161C11.6547 4.42161 11.375 4.14193 11.375 3.79675L11.375 2.62486C11.375 2.27967 11.6547 2 11.9999 2C12.3451 2 12.6248 2.27967 12.6248 2.62486L12.6248 3.79675Z" fill="white"/>
<path d="M15.5157 11.375C15.8609 11.375 16.1406 11.6547 16.1406 11.9999C16.1406 12.345 15.8609 12.6247 15.5157 12.6247L14.3439 12.6247C13.9987 12.6247 13.719 12.345 13.719 11.9999C13.719 11.6547 13.9987 11.375 14.3439 11.375L15.5157 11.375Z" fill="white"/>
<path d="M18.4844 15.5157C18.4844 15.8609 18.2047 16.1406 17.8595 16.1406C17.5143 16.1406 17.2347 15.8609 17.2347 15.5157L17.2347 14.3439C17.2347 13.9987 17.5143 13.719 17.8595 13.719C18.2047 13.719 18.4844 13.9987 18.4844 14.3439L18.4844 15.5157Z" fill="white"/>
<path d="M18.4844 21.3751C18.4844 21.7203 18.2047 22 17.8595 22C17.5143 22 17.2347 21.7203 17.2347 21.3751L17.2347 20.2032C17.2347 19.858 17.5143 19.5784 17.8595 19.5784C18.2047 19.5784 18.4844 19.858 18.4844 20.2032L18.4844 21.3751Z" fill="white"/>
<path d="M15.5158 18.4844C15.861 18.4844 16.1406 18.2047 16.1406 17.8595C16.1406 17.5143 15.861 17.2347 15.5158 17.2347L12.0001 17.2347C11.6549 17.2347 11.3752 17.5143 11.3752 17.8595C11.3752 18.2047 11.6549 18.4844 12.0001 18.4844L15.5158 18.4844Z" fill="white"/>
<path d="M21.3751 18.4844L21.4392 18.4813C21.7543 18.4492 22 18.1831 22 17.8595C22 17.5143 21.7203 17.2347 21.3751 17.2347L20.2032 17.2347C19.858 17.2347 19.5784 17.5143 19.5784 17.8595C19.5784 18.2047 19.858 18.4844 20.2032 18.4844L21.3751 18.4844Z" fill="white"/>
<path d="M21.3752 20.7502C21.7203 20.7502 22 21.0299 22 21.3751C22 21.6986 21.7543 21.9648 21.4392 21.9969L21.3752 22L17.8595 22C17.5143 22 17.2346 21.7203 17.2346 21.3751C17.2346 21.0299 17.5143 20.7502 17.8595 20.7502L21.3752 20.7502Z" fill="white"/>
<path d="M14.3439 20.7502C14.6891 20.7502 14.9687 21.0299 14.9687 21.3751C14.9687 21.7203 14.6891 22 14.3439 22L12.0001 22C11.6549 22 11.3752 21.7203 11.3752 21.3751C11.3752 21.0299 11.6549 20.7502 12.0001 20.7502L14.3439 20.7502Z" fill="white"/>
<path d="M21.3751 11.375C21.7203 11.375 22 11.6547 22 11.9999C22 12.345 21.7203 12.6247 21.3751 12.6247L20.2032 12.6247C19.858 12.6247 19.5784 12.345 19.5784 11.9999C19.5784 11.6547 19.858 11.375 20.2032 11.375L21.3751 11.375Z" fill="white"/>
<path d="M16.1406 7.85946H20.7503V3.24971H16.1406V7.85946ZM22 8.32792C22 8.7594 21.6503 9.10918 21.2188 9.10918H15.6721C15.2407 9.10918 14.8909 8.75939 14.8909 8.32792V2.78126C14.8909 2.34978 15.2407 2 15.6721 2H21.2188C21.6503 2 22 2.34978 22 2.78126V8.32792Z" fill="white"/>
</svg>
