<svg width="24" height="24" viewBox="0 0 24 24" fill="none" xmlns="http://www.w3.org/2000/svg">
<path d="M12 1C9.82441 1 7.69767 1.64514 5.88873 2.85383C4.07979 4.06253 2.66989 5.78049 1.83733 7.79048C1.00477 9.80047 0.786929 12.0122 1.21137 14.146C1.6358 16.2798 2.68345 18.2398 4.22183 19.7782C5.76021 21.3165 7.72022 22.3642 9.85401 22.7886C11.9878 23.2131 14.1995 22.9952 16.2095 22.1627C18.2195 21.3301 19.9375 19.9202 21.1462 18.1113C22.3549 16.3023 23 14.1756 23 12C22.9969 9.08356 21.837 6.28746 19.7748 4.22523C17.7125 2.16299 14.9164 1.00308 12 1ZM6.29693 19.351C6.90905 18.3936 7.75232 17.6058 8.749 17.0601C9.74568 16.5143 10.8637 16.2283 12 16.2283C13.1363 16.2283 14.2543 16.5143 15.251 17.0601C16.2477 17.6058 17.091 18.3936 17.7031 19.351C16.0725 20.6191 14.0657 21.3076 12 21.3076C9.93431 21.3076 7.92753 20.6191 6.29693 19.351ZM8.61539 11.1538C8.61539 10.4844 8.81389 9.83005 9.1858 9.27345C9.5577 8.71686 10.0863 8.28304 10.7048 8.02687C11.3232 7.77069 12.0038 7.70367 12.6603 7.83426C13.3169 7.96486 13.9199 8.28721 14.3933 8.76056C14.8666 9.23391 15.189 9.83699 15.3196 10.4935C15.4502 11.1501 15.3832 11.8306 15.127 12.4491C14.8708 13.0675 14.437 13.5961 13.8804 13.968C13.3238 14.34 12.6694 14.5385 12 14.5385C11.1023 14.5385 10.2415 14.1819 9.60672 13.5471C8.97198 12.9124 8.61539 12.0515 8.61539 11.1538ZM18.9554 18.178C18.0117 16.8105 16.6847 15.7525 15.1413 15.1371C15.9704 14.4841 16.5753 13.5891 16.8721 12.5763C17.1688 11.5636 17.1426 10.4836 16.7971 9.48644C16.4515 8.48931 15.8039 7.62463 14.9441 7.01265C14.0844 6.40068 13.0553 6.07182 12 6.07182C10.9447 6.07182 9.91562 6.40068 9.05588 7.01265C8.19613 7.62463 7.54846 8.48931 7.20293 9.48644C6.8574 10.4836 6.83118 11.5636 7.12793 12.5763C7.42467 13.5891 8.02962 14.4841 8.85866 15.1371C7.31529 15.7525 5.98833 16.8105 5.04462 18.178C3.85214 16.837 3.07273 15.1799 2.80024 13.4062C2.52775 11.6325 2.7738 9.81787 3.50876 8.18078C4.24372 6.54369 5.43625 5.15396 6.94276 4.17893C8.44926 3.20391 10.2055 2.68516 12 2.68516C13.7945 2.68516 15.5507 3.20391 17.0572 4.17893C18.5638 5.15396 19.7563 6.54369 20.4912 8.18078C21.2262 9.81787 21.4722 11.6325 21.1998 13.4062C20.9273 15.1799 20.1479 16.837 18.9554 18.178Z" fill="#9A9A9A"/>
</svg>
