<svg width="342" height="39" viewBox="0 0 342 39" fill="none" xmlns="http://www.w3.org/2000/svg">
<g clip-path="url(#clip0_534_2901)">
<path d="M168.627 14.6831C168.627 9.32121 165.867 6.24353 161.05 6.24353H144.531C143.342 6.24353 142.385 7.20531 142.385 8.39951V31.0974C142.385 32.2916 143.342 33.2534 144.531 33.2534H146.389C147.578 33.2534 148.535 32.2916 148.535 31.0974V25.4069C148.535 24.2127 149.492 23.2509 150.68 23.2509H157.46C161.225 23.2509 163.02 24.6375 163.02 32.492V33.2534H169.082V32.492C169.082 28.0438 168.476 24.6535 167.231 22.209C166.888 21.5358 166.888 20.7423 167.287 20.1011C168.18 18.6905 168.627 16.8792 168.627 14.6831ZM148.535 14.0339C148.535 12.8397 149.492 11.8779 150.68 11.8779H158.824C161.305 11.8779 162.565 12.8397 162.565 14.7232C162.565 16.6067 161.305 17.5684 158.824 17.5684H150.68C149.492 17.5684 148.535 16.6067 148.535 15.4125V14.0339Z" fill="white"/>
<path d="M115.672 7.58198L106.364 30.2318C105.782 31.6504 106.819 33.2133 108.35 33.2133H110.209C111.078 33.2133 111.86 32.6843 112.195 31.8828L114.596 26.0481C114.931 25.2386 115.712 24.7176 116.582 24.7176H124.741C125.611 24.7176 126.393 25.2466 126.728 26.0481L129.128 31.8828C129.463 32.6923 130.245 33.2133 131.115 33.2133H132.973C134.504 33.2133 135.541 31.6504 134.959 30.2318L125.651 7.58198C125.316 6.77249 124.534 6.25153 123.665 6.25153H117.658C116.789 6.25153 116.007 6.7805 115.672 7.58198ZM120.953 11.926L122.652 16.0536C123.234 17.4722 122.197 19.0351 120.666 19.0351C119.134 19.0351 118.097 17.4722 118.679 16.0536L120.378 11.926H120.953Z" fill="white"/>
<path d="M81.3105 22.8903H96.2421C97.4306 22.8903 98.3877 21.9285 98.3877 20.7343V19.3718C98.3877 18.1776 97.4306 17.2158 96.2421 17.2158H81.3105C80.122 17.2158 79.1648 16.254 79.1648 15.0598V14.09C79.1648 12.8958 80.122 11.9341 81.3105 11.9341H96.6968C97.8852 11.9341 98.8424 10.9723 98.8424 9.77808V8.41556C98.8424 7.22136 97.8852 6.25958 96.6968 6.25958H75.2485C74.06 6.25958 73.1028 7.22136 73.1028 8.41556V31.0654C73.1028 32.2596 74.06 33.2214 75.2485 33.2214H97.6061C98.7945 33.2214 99.7517 32.2596 99.7517 31.0654V29.7029C99.7517 28.5087 98.7945 27.5469 97.6061 27.5469H81.3105C80.122 27.5469 79.1648 26.5851 79.1648 25.3909V25.0623C79.1648 23.8681 80.122 22.9063 81.3105 22.9063V22.8903Z" fill="white"/>
<path d="M45.4171 6.24353H43.6464C42.4579 6.24353 41.5007 7.20531 41.5007 8.39951V31.0493C41.5007 32.2435 42.4579 33.2053 43.6464 33.2053H65.1026C66.2911 33.2053 67.2482 32.2435 67.2482 31.0493V29.6868C67.2482 28.4926 66.2911 27.5308 65.1026 27.5308H49.7084C48.5199 27.5308 47.5627 26.5691 47.5627 25.3748V8.39951C47.5627 7.20531 46.6056 6.24353 45.4171 6.24353Z" fill="white"/>
<path d="M316.093 25.3749V25.0463C316.093 23.8521 317.05 22.8903 318.239 22.8903H333.178C334.367 22.8903 335.324 21.9285 335.324 20.7343V19.3718C335.324 18.1776 334.367 17.2158 333.178 17.2158H318.239C317.05 17.2158 316.093 16.254 316.093 15.0598V14.09C316.093 12.8958 317.05 11.9341 318.239 11.9341H333.633C334.821 11.9341 335.778 10.9723 335.778 9.77808V8.41556C335.778 7.22136 334.821 6.25958 333.633 6.25958H312.185C310.996 6.25958 310.039 7.22136 310.039 8.41556V31.0654C310.039 32.2596 310.996 33.2214 312.185 33.2214H334.542C335.731 33.2214 336.688 32.2596 336.688 31.0654V29.7029C336.688 28.5087 335.731 27.5469 334.542 27.5469H318.239C317.05 27.5469 316.093 26.5851 316.093 25.3909V25.3749Z" fill="white"/>
<path d="M280.846 11.926H286.413C287.602 11.926 288.559 12.8878 288.559 14.082V31.0573C288.559 32.2515 289.516 33.2133 290.704 33.2133H292.475C293.664 33.2133 294.621 32.2515 294.621 31.0573V14.082C294.621 12.8878 295.578 11.926 296.766 11.926H302.334C303.522 11.926 304.479 10.9642 304.479 9.77002V8.40751C304.479 7.2133 303.522 6.25153 302.334 6.25153H280.838C279.649 6.25153 278.692 7.2133 278.692 8.40751V9.77002C278.692 10.9642 279.649 11.926 280.838 11.926H280.846Z" fill="white"/>
<path d="M258.488 7.58198L249.18 30.2318C248.597 31.6504 249.634 33.2133 251.166 33.2133H253.024C253.894 33.2133 254.675 32.6843 255.01 31.8828L257.411 26.0481C257.746 25.2386 258.528 24.7176 259.397 24.7176H267.557C268.427 24.7176 269.208 25.2466 269.543 26.0481L271.944 31.8828C272.279 32.6923 273.061 33.2133 273.93 33.2133H275.789C277.32 33.2133 278.357 31.6504 277.775 30.2318L268.466 7.58198C268.131 6.77249 267.35 6.25153 266.48 6.25153H260.474C259.605 6.25153 258.823 6.7805 258.488 7.58198ZM263.768 11.926C264.654 12.8156 266.05 17.4883 266.05 17.4883C266.353 18.2256 265.81 19.0351 265.021 19.0351H261.854C261.096 19.0351 260.586 18.2657 260.873 17.5604C260.873 17.5604 262.085 13.0401 263.186 11.926C263.29 11.8218 263.665 11.8218 263.76 11.926H263.768Z" fill="white"/>
<path d="M220.481 6.24353H218.71C217.522 6.24353 216.565 7.20531 216.565 8.39951V31.0493C216.565 32.2435 217.522 33.2053 218.71 33.2053H240.159C241.347 33.2053 242.304 32.2435 242.304 31.0493V29.6868C242.304 28.4926 241.347 27.5308 240.159 27.5308H224.764C223.576 27.5308 222.619 26.5691 222.619 25.3748V8.39951C222.619 7.20531 221.661 6.24353 220.473 6.24353H220.481Z" fill="white"/>
<path d="M203.053 6.24355H186.534C185.345 6.24355 184.388 7.20532 184.388 8.39953V22.3773C184.388 22.4174 184.388 22.4655 184.388 22.5056L184.428 23.1387C184.428 23.1788 184.428 23.2269 184.428 23.267V31.0493C184.428 32.2435 185.385 33.2053 186.574 33.2053H188.344C189.533 33.2053 190.49 32.2435 190.49 31.0493V25.3588C190.49 24.1646 191.447 23.2029 192.636 23.2029H203.053C207.87 23.2029 210.63 20.0931 210.63 14.6751C210.63 9.25711 207.87 6.23553 203.053 6.23553V6.24355ZM190.538 14.0339C190.538 12.8397 191.495 11.878 192.684 11.878H200.827C203.308 11.878 204.568 12.8397 204.568 14.7232C204.568 16.6067 203.308 17.5685 200.827 17.5685H192.684C191.495 17.5685 190.538 16.6067 190.538 15.4125V14.0339Z" fill="white"/>
<path d="M28.2282 23.8119C27.1912 26.4568 24.0246 28.0357 19.7493 28.0357C14.0303 28.0357 11.3742 25.3909 11.3742 19.7084C11.3742 13.7454 14.0383 10.9722 19.7493 10.9722C24.6548 10.9722 27.4146 12.7435 28.1883 16.3982L28.3159 16.9994H34.3859L34.2184 16.1017C32.99 9.36126 27.5582 5.33783 19.7015 5.33783C11.0951 5.33783 5.30426 11.1165 5.30426 19.7084C5.30426 28.3002 11.0871 33.6701 19.7015 33.6701C26.9121 33.6701 32.4795 30.0875 34.2423 24.3169L34.5454 23.331H28.4116L28.2202 23.8119H28.2282Z" fill="white"/>
</g>
<defs>
<clipPath id="clip0_534_2901">
<rect width="342" height="39" fill="white"/>
</clipPath>
</defs>
</svg>
