<svg width="45" height="72" viewBox="0 0 45 72" fill="none" xmlns="http://www.w3.org/2000/svg">
<ellipse cx="22" cy="63" rx="21" ry="9" fill="url(#paint0_radial_205_1082)"/>
<mask id="path-2-inside-1_205_1082" fill="white">
<path d="M22.2283 0C34.4736 0.000222652 44.4001 9.92749 44.4001 22.1729C44.4001 25.5735 43.6336 28.7948 42.2654 31.6748H42.2888L29.4539 58.6953C26.561 64.785 17.8945 64.7851 15.0017 58.6953L2.16675 31.6748H2.19019C0.82198 28.7948 0.0554818 25.5734 0.0554199 22.1729C0.0554199 9.92735 9.98277 0 22.2283 0Z"/>
</mask>
<path d="M22.2283 0C34.4736 0.000222652 44.4001 9.92749 44.4001 22.1729C44.4001 25.5735 43.6336 28.7948 42.2654 31.6748H42.2888L29.4539 58.6953C26.561 64.785 17.8945 64.7851 15.0017 58.6953L2.16675 31.6748H2.19019C0.82198 28.7948 0.0554818 25.5734 0.0554199 22.1729C0.0554199 9.92735 9.98277 0 22.2283 0Z" fill="#3FD449"/>
<path d="M22.2283 0L22.2283 -1H22.2283V0ZM44.4001 22.1729L45.4001 22.1729V22.1729H44.4001ZM42.2654 31.6748L41.3621 31.2457L40.6832 32.6748H42.2654V31.6748ZM42.2888 31.6748L43.1921 32.1039L43.8709 30.6748H42.2888V31.6748ZM29.4539 58.6953L30.3571 59.1244L30.3571 59.1244L29.4539 58.6953ZM15.0017 58.6953L14.0984 59.1244L14.0984 59.1244L15.0017 58.6953ZM2.16675 31.6748V30.6748H0.584657L1.26347 32.1039L2.16675 31.6748ZM2.19019 31.6748V32.6748H3.77236L3.09344 31.2457L2.19019 31.6748ZM0.0554199 22.1729H-0.94458V22.1729L0.0554199 22.1729ZM22.2283 0L22.2283 1C33.9213 1.00021 43.4001 10.4797 43.4001 22.1729H44.4001H45.4001C45.4001 9.37524 35.0259 -0.999767 22.2283 -1L22.2283 0ZM44.4001 22.1729L43.4001 22.1728C43.4001 25.4217 42.6681 28.4967 41.3621 31.2457L42.2654 31.6748L43.1686 32.1039C44.5991 29.0928 45.4001 25.7252 45.4001 22.1729L44.4001 22.1729ZM42.2654 31.6748V32.6748H42.2888V31.6748V30.6748H42.2654V31.6748ZM42.2888 31.6748L41.3855 31.2457L28.5506 58.2663L29.4539 58.6953L30.3571 59.1244L43.1921 32.1039L42.2888 31.6748ZM29.4539 58.6953L28.5506 58.2662C26.0193 63.5947 18.4362 63.5947 15.905 58.2662L15.0017 58.6953L14.0984 59.1244C17.3529 65.9754 27.1026 65.9753 30.3571 59.1244L29.4539 58.6953ZM15.0017 58.6953L15.905 58.2663L3.07002 31.2457L2.16675 31.6748L1.26347 32.1039L14.0984 59.1244L15.0017 58.6953ZM2.16675 31.6748V32.6748H2.19019V31.6748V30.6748H2.16675V31.6748ZM2.19019 31.6748L3.09344 31.2457C1.78749 28.4967 1.05548 25.4217 1.05542 22.1728L0.0554199 22.1729L-0.94458 22.1729C-0.944515 25.7252 -0.143534 29.0928 1.28693 32.1039L2.19019 31.6748ZM0.0554199 22.1729H1.05542C1.05542 10.4796 10.5351 1 22.2283 1V0V-1C9.43049 -1 -0.94458 9.37507 -0.94458 22.1729H0.0554199Z" fill="url(#paint1_linear_205_1082)" mask="url(#path-2-inside-1_205_1082)"/>
<circle cx="22" cy="22" r="10.5" fill="white" stroke="url(#paint2_linear_205_1082)"/>
<defs>
<radialGradient id="paint0_radial_205_1082" cx="0" cy="0" r="1" gradientUnits="userSpaceOnUse" gradientTransform="translate(22 63) scale(21 9)">
<stop stop-color="#9A9A9A"/>
<stop offset="1" stop-color="#9A9A9A" stop-opacity="0"/>
</radialGradient>
<linearGradient id="paint1_linear_205_1082" x1="22.2278" y1="0" x2="22.2278" y2="63.2626" gradientUnits="userSpaceOnUse">
<stop stop-color="white"/>
<stop offset="1" stop-color="white" stop-opacity="0.4"/>
</linearGradient>
<linearGradient id="paint2_linear_205_1082" x1="22" y1="11" x2="22" y2="33" gradientUnits="userSpaceOnUse">
<stop stop-color="white"/>
<stop offset="1" stop-color="white" stop-opacity="0.4"/>
</linearGradient>
</defs>
</svg>
